<svg width="406" height="338" viewBox="0 0 406 338" fill="none" xmlns="http://www.w3.org/2000/svg">
<path d="M173.662 1.24875C146.454 5.65029 117.66 18.9883 97.1619 36.9946C75.3221 56.0679 60.1928 78.8759 50.432 107.152C37.4989 144.632 37.4989 194.516 50.31 232.13C52.5062 238.665 54.0923 243.867 53.8483 243.867C53.6042 243.867 50.554 242.266 47.0157 240.399C39.5731 236.131 26.884 222.66 23.5898 215.19C19.9295 207.054 20.2955 191.049 24.4438 180.111C26.152 175.576 27.3721 171.842 27.2501 171.842C27.006 171.842 23.3457 176.777 19.1974 182.779C5.77628 202.252 -1.1783 222.393 0.163811 238.132C2.482 264.674 24.5658 280.413 69.0995 287.349L83.3747 289.616L91.9154 297.219C103.628 307.756 109.851 312.024 122.784 319.227C135.839 326.296 151.578 332.165 166.586 335.499C181.837 338.834 218.44 338.834 232.837 335.499C247.356 332.165 266.756 324.829 278.469 318.426C315.56 298.019 344.476 258.272 354.847 213.59C355.945 208.655 357.287 207.054 366.072 200.252C387.058 184.113 400.479 166.907 404.261 151.168C406.58 141.298 406.58 135.829 404.261 125.826C400.723 110.62 391.45 99.8166 374.979 91.1469C360.46 83.6776 359.606 83.6776 366.072 91.6804C373.271 100.483 377.053 110.887 377.175 122.491C377.297 132.361 374.979 138.23 367.414 147.433C360.216 156.103 359.606 155.703 357.776 141.164C353.749 107.686 340.206 76.4751 319.342 52.4667C296.404 26.1908 264.072 8.05115 228.567 1.78229C216.61 -0.351793 185.741 -0.618572 173.662 1.24875ZM211.485 31.7928C244.306 34.9939 269.44 47.3982 290.792 71.0065C313.608 96.0819 324.589 125.692 324.833 163.172L324.955 181.845L313.974 188.114C307.995 191.582 294.696 198.251 284.569 203.053C222.832 231.863 159.143 248.935 110.827 249.602L94.3556 249.869L87.279 234.53C79.3484 217.058 76.0541 204.653 74.102 183.713C70.0756 139.43 83.1307 98.6161 110.705 69.1392C130.349 48.1985 157.923 34.5938 186.351 31.7928C192.086 31.2593 197.088 30.7257 197.454 30.5923C197.82 30.5923 204.165 31.1259 211.485 31.7928ZM307.141 244.534C293.232 269.476 269.928 289.483 243.208 299.086C211.851 310.557 173.052 308.556 144.868 294.151C134.375 288.816 133.277 289.483 159.631 285.348C180.739 282.014 221.856 272.144 241.378 265.608C249.064 263.074 267.732 255.471 282.861 248.669C297.991 241.866 310.558 236.398 310.802 236.665C311.046 236.931 309.459 240.533 307.141 244.534Z" fill="#05E981"/>
<path d="M307.141 244.534C293.232 269.476 269.928 289.483 243.208 299.086C211.851 310.557 173.052 308.556 144.868 294.151C134.375 288.816 133.277 289.483 159.631 285.348C180.739 282.014 221.856 272.144 241.378 265.608C249.064 263.074 267.732 255.471 282.861 248.669C297.991 241.866 310.558 236.398 310.802 236.665C311.046 236.931 309.459 240.533 307.141 244.534Z" fill="#A1FED2"/>
<path fill-rule="evenodd" clip-rule="evenodd" d="M290.792 71.0065C269.44 47.3982 244.306 34.9939 211.485 31.7928C204.165 31.1259 197.82 30.5923 197.454 30.5923C197.088 30.7257 192.086 31.2593 186.351 31.7928C157.923 34.5938 130.349 48.1985 110.705 69.1392C83.1307 98.6161 70.0756 139.43 74.102 183.713C76.0541 204.653 79.3484 217.058 87.279 234.53L94.3556 249.869L110.827 249.602C159.143 248.935 222.832 231.863 284.569 203.053C294.696 198.251 307.995 191.582 313.974 188.114L324.955 181.845L324.833 163.172C324.589 125.692 313.608 96.0819 290.792 71.0065ZM110.705 163.172C126.367 160.464 130.443 155.166 132.495 141.565C134.018 154.212 136.95 159.975 153.256 163.172C138.001 167.385 133.199 172.728 132.495 187.581C131.222 173.201 127.451 167.188 110.705 163.172Z" fill="#A1FED2"/>
<path d="M132.495 141.565C130.443 155.166 126.367 160.464 110.705 163.172C127.451 167.188 131.222 173.201 132.495 187.581C133.199 172.728 138.001 167.385 153.256 163.172C136.95 159.975 134.018 154.212 132.495 141.565Z" fill="#05E981"/>
</svg>
