<svg width="425" height="425" viewBox="0 0 425 425" fill="none" xmlns="http://www.w3.org/2000/svg">
<path d="M188 1.30832C79.8668 15.175 -0.133167 105.442 0.000166419 213.175C0.266833 303.575 59.0668 385.308 144.667 413.975C170.8 422.642 181.467 424.375 212.667 424.375C236.667 424.375 242.667 423.975 254.267 421.442C305.067 410.375 347.734 384.242 379.6 344.508C399.334 319.975 414.4 287.308 421.6 253.975C424 242.642 424.534 236.108 424.534 213.175C424.667 189.442 424.267 183.975 421.467 171.308C404.134 89.575 344.267 26.6416 265.067 6.37497C241.867 0.508303 210.267 -1.62501 188 1.30832ZM238.267 41.975C322.4 54.375 385.334 127.442 385.334 212.508C385.334 239.175 380.134 262.375 368.667 286.242C359.067 306.242 349.867 319.308 334.667 334.508C310.534 358.642 281.6 374.508 248 381.842C232.534 385.175 202.134 385.842 186 383.308C146.933 376.775 108.4 355.842 83.8668 327.442C31.8668 267.442 25.6002 184.508 68.1335 118.375C78.9335 101.708 104.134 76.775 120.4 66.6417C156.4 44.5083 197.334 35.8416 238.267 41.975Z" fill="#F38002"/>
<path d="M238.267 41.975C322.4 54.375 385.334 127.442 385.334 212.508C385.334 239.175 380.134 262.375 368.667 286.242C359.067 306.242 349.867 319.308 334.667 334.508C310.534 358.642 281.6 374.508 248 381.842C232.534 385.175 202.134 385.842 186 383.308C146.933 376.775 108.4 355.842 83.8668 327.442C31.8668 267.442 25.6002 184.508 68.1335 118.375C78.9335 101.708 104.134 76.775 120.4 66.6417C156.4 44.5083 197.334 35.8416 238.267 41.975Z" fill="#FFE900" fill-opacity="0.8"/>
<path d="M128.667 118.642C119.6 123.976 106.267 141.309 98.0002 158.776C91.3335 172.776 87.2002 188.509 86.0002 204.509C85.2002 213.976 85.4669 215.842 88.2669 221.176C95.2002 234.642 112.934 236.242 121.867 224.242C123.467 221.976 124.8 217.042 125.6 209.309C128.134 185.976 133.867 171.709 147.867 154.642C152.8 148.776 156.267 143.042 156.8 140.242C158 133.976 154.267 124.642 149.067 120.909C144.267 117.576 132.8 116.242 128.667 118.642Z" fill="#EEEEEE" fill-opacity="0.5"/>
<path d="M131.467 269.175C123.601 271.575 117.334 280.242 117.334 288.775C117.334 299.175 126.401 307.842 137.334 307.842C153.201 307.842 162.401 289.842 153.067 276.908C148.534 270.508 138.801 267.042 131.467 269.175Z" fill="#EEEEEE" fill-opacity="0.5"/>
</svg>
